# xmcd
#
# Track frame offsets:
#	150
#	24887
#	40024
#	57407
#	63718
#	85421
#	88981
#	134704
#	148109
#	162753
#	228236
#	250992
#
# Disc length: 3504 seconds
#
# Revision: 1
# Processed by: cddbd v1.5.2PL0 Copyright (c) Steve Scherf et al.
# Submitted via: audiograbber 1.83.01
#
DISCID=a80dae0c
DTITLE=Grateful Dead - 70-07-11A Fillmore East, New York NY
DYEAR=1900
DGENRE=
TTITLE0=NRPS Last Lonely Eagle
TTITLE1=NRPS The Only Daddy That'll Walk The Line
TTITLE2=NRPS Fair Chance To Know
TTITLE3=NRPS Henry
TTITLE4=NRPS Honky Tonk Woman
TTITLE5=Intro
TTITLE6=Morning Dew
TTITLE7=Sitting On Top Of The World
TTITLE8=Me and My Uncle
TTITLE9=Not Fade Away
TTITLE10=Casey Jones
TTITLE11=Mama Tried
EXTD=
EXTT0=
EXTT1=
EXTT2=
EXTT3=
EXTT4=
EXTT5=
EXTT6=
EXTT7=
EXTT8=
EXTT9=
EXTT10=
EXTT11=
PLAYORDER=
